<svg xmlns="http://www.w3.org/2000/svg" xmlns:xlink="http://www.w3.org/1999/xlink" width="30" height="30" viewBox="0 0 30 30"><defs><clipPath id="a"><rect width="30" height="30" transform="translate(79 230)" fill="none" stroke="#707070" stroke-width="1"/></clipPath><clipPath id="b"><path d="M0,0V30H40V0Z"/></clipPath><clipPath id="c"><path d="M20,15H40V30Zm0,0V30H0Zm0,0H0V0Zm0,0V0H40Z"/></clipPath></defs><g transform="translate(-79 -230)" clip-path="url(#a)"><g transform="translate(74 230)" clip-path="url(#b)"><path d="M0,0V30H40V0Z" fill="#012169"/><path d="M0,0,40,30M40,0,0,30" stroke="#fff" stroke-width="6"/><g clip-path="url(#c)"><path d="M0,0,40,30M40,0,0,30" stroke="#c8102e" stroke-width="4"/></g><path d="M20,0V30M0,15H40" stroke="#fff" stroke-width="10"/><path d="M20,0V30M0,15H40" stroke="#c8102e" stroke-width="6"/></g></g></svg>