<svg xmlns="http://www.w3.org/2000/svg" width="50" height="50" viewBox="0 0 50 50"><defs><style>.a{fill:#e8e8e8;fill-rule:evenodd;}</style></defs><path class="a" d="M25,0C11.188,0,0,11.47,0,25.632A25.566,25.566,0,0,0,17.094,49.951c1.25.224,1.719-.545,1.719-1.218,0-.609-.031-2.627-.031-4.774-6.281,1.185-7.906-1.57-8.406-3.012-.281-.737-1.5-3.012-2.562-3.621-.875-.481-2.125-1.666-.031-1.7,1.969-.032,3.375,1.858,3.844,2.627,2.25,3.877,5.844,2.788,7.281,2.115A5.443,5.443,0,0,1,20.5,36.943C14.937,36.3,9.125,34.091,9.125,24.287A10.118,10.118,0,0,1,11.687,17.4a9.427,9.427,0,0,1,.25-6.793s2.094-.673,6.875,2.627a23.01,23.01,0,0,1,12.5,0c4.781-3.332,6.875-2.627,6.875-2.627a9.427,9.427,0,0,1,.25,6.793A10.059,10.059,0,0,1,41,24.287c0,9.836-5.844,12.015-11.406,12.656a6.153,6.153,0,0,1,1.688,4.742c0,3.428-.031,6.184-.031,7.049,0,.673.469,1.474,1.719,1.218A25.631,25.631,0,0,0,50,25.632C50,11.47,38.813,0,25,0Z"/></svg>