<svg xmlns="http://www.w3.org/2000/svg" width="50" height="50" viewBox="0 0 50 50"><defs><style>.a{fill:#e8e8e8;fill-rule:evenodd;}</style></defs><path class="a" d="M0,0V50H50V0ZM15.552,41.539H8.134V19.22h7.418ZM11.843,16.174h-.049a3.867,3.867,0,1,1,.1-7.713,3.869,3.869,0,1,1-.049,7.713ZM42.308,41.539h-7.42V29.6c0-3-1.072-5.046-3.758-5.046a4.058,4.058,0,0,0-3.807,2.714,5.084,5.084,0,0,0-.246,1.809V41.539H19.655s.1-20.225,0-22.318h7.422v3.163A7.369,7.369,0,0,1,33.764,18.7c4.883,0,8.543,3.189,8.543,10.044Z"/></svg>